<?xml version="1.0" encoding="UTF-8" standalone="no" ?>
<!DOCTYPE svg PUBLIC "-//W3C//DTD SVG 1.1//EN" "http://www.w3.org/Graphics/SVG/1.1/DTD/svg11.dtd">
<svg xmlns="http://www.w3.org/2000/svg" xmlns:xlink="http://www.w3.org/1999/xlink" version="1.1" width="80" height="80" viewBox="0 0 1080 1080" xml:space="preserve">
<desc>Created with Fabric.js 5.2.4</desc>
<defs>
</defs>
<g transform="matrix(1 0 0 1 540 540)" id="f3f457c7-d4a9-4c9f-8abb-43eb5dab6be1"  >
<rect style="stroke: none; stroke-width: 1; stroke-dasharray: none; stroke-linecap: butt; stroke-dashoffset: 0; stroke-linejoin: miter; stroke-miterlimit: 4; fill: rgb(255,255,255); fill-rule: nonzero; opacity: 1; visibility: hidden;" vector-effect="non-scaling-stroke"  x="-540" y="-540" rx="0" ry="0" width="1080" height="1080" />
</g>
<g transform="matrix(1 0 0 1 540 540)" id="a9a85b65-5042-4670-8448-4dbd28095cd4"  >
</g>
<g transform="matrix(13.01 0 0 13.01 540 540)"  >
<path style="stroke: none; stroke-width: 1; stroke-dasharray: none; stroke-linecap: butt; stroke-dashoffset: 0; stroke-linejoin: miter; stroke-miterlimit: 4; fill: rgb(61,210,204); fill-rule: nonzero; opacity: 1;"  transform=" translate(-41.67, -41.67)" d="M 71.873 70.321 C 78.968 62.846999999999994 83.333 52.76 83.333 41.667 C 83.333 30.310000000000002 78.761 20.003 71.366 12.48 C 71.281 12.389000000000001 71.204 12.293000000000001 71.116 12.205 C 71.046 12.135 70.966 12.077 70.896 12.009 C 63.370000000000005 4.589 53.046 -0.0009999999999994458 41.666 -0.0009999999999994458 C 30.284999999999997 -0.0009999999999994458 19.956999999999997 4.591 12.430999999999997 12.015 C 12.361999999999997 12.08 12.285999999999998 12.136000000000001 12.218999999999998 12.205 C 12.133999999999997 12.290000000000001 12.058999999999997 12.383000000000001 11.978999999999997 12.47 C 4.576 19.995 -0.002 30.304 -0.002 41.667 C 0 52.76 4.369 62.847 11.463 70.322 C 11.690999999999999 70.60000000000001 11.934 70.869 12.190999999999999 71.12700000000001 C 12.389999999999999 71.32700000000001 12.607 71.507 12.821 71.691 C 20.314999999999998 78.891 30.479 83.33200000000001 41.666 83.33200000000001 C 52.852 83.33200000000001 63.013 78.893 70.505 71.697 C 70.72099999999999 71.512 70.941 71.32900000000001 71.14099999999999 71.12700000000001 C 71.40199999999999 70.86900000000001 71.645 70.60000000000001 71.874 70.32000000000001 z M 74.563 59.266999999999996 C 74.053 54.016999999999996 71.756 47.90299999999999 67.915 41.62899999999999 C 69.914 38.35599999999999 71.537 35.08399999999999 72.688 31.90699999999999 C 73.702 29.10399999999999 74.32000000000001 26.474999999999987 74.556 24.05599999999999 C 77.46981390527024 29.468662947806628 78.99214425069185 35.52087108405159 78.98599999999999 41.66799999999996 C 78.98599999999999 48.02799999999999 77.38199999999999 54.01899999999999 74.56299999999999 59.267999999999994 z M 67.852 68.22399999999999 C 66.34400000000001 69.61099999999999 64.20400000000001 70.33399999999999 61.447 70.33399999999999 C 56.944 70.33399999999999 51.432 68.481 45.712 65.23599999999999 C 49.47187246438146 62.547317698387815 53.00139366712882 59.55030196898898 56.264 56.275999999999975 C 59.54372051852043 52.99951102628432 62.54289630201299 49.45375335229133 65.23000000000002 45.67599999999996 C 66.61 48.118999999999986 67.77300000000001 50.545999999999985 68.628 52.90599999999999 C 71.034 59.54599999999999 70.879 64.943 68.252 67.823 C 68.118 67.95899999999999 67.98599999999999 68.09299999999999 67.85199999999999 68.22399999999999 z M 15.479000000000006 68.22099999999999 C 15.347000000000007 68.091 15.216000000000006 67.96099999999998 15.087000000000007 67.82799999999999 C 12.457000000000008 64.94999999999999 12.300000000000008 59.54999999999999 14.707000000000006 52.90799999999999 C 15.561000000000005 50.54699999999999 16.724000000000007 48.11799999999999 18.103000000000005 45.67799999999998 C 20.79010369798703 49.45575335229133 23.789279481479575 53.001511026284305 27.068999999999985 56.27799999999996 C 30.3322825434265 59.55126679979151 33.86174320782628 62.5478966417511 37.620999999999995 65.23699999999997 C 31.901000000000003 68.48099999999998 26.389000000000003 70.33599999999998 21.886000000000003 70.33599999999998 C 19.126000000000005 70.33399999999999 16.984 69.61099999999999 15.479000000000003 68.22099999999999 z M 30.143000000000008 53.20299999999999 C 26.44600000000001 49.505999999999986 23.218000000000007 45.58699999999999 20.577000000000005 41.64499999999999 C 23.214000000000006 37.71699999999999 26.433000000000007 33.81299999999999 30.117000000000004 30.12999999999999 C 33.813 26.433999999999987 37.74700000000001 23.21499999999999 41.667 20.584999999999987 C 45.588 23.214999999999986 49.522000000000006 26.434999999999988 53.217 30.12999999999999 C 56.9 33.813999999999986 60.120999999999995 37.716999999999985 62.756 41.64499999999999 C 60.115 45.58699999999999 56.887 49.50499999999999 53.19 53.20299999999999 C 49.501999999999995 56.889999999999986 45.577999999999996 60.10299999999999 41.666 62.73099999999999 C 37.754999999999995 60.10299999999999 33.830999999999996 56.89099999999999 30.142999999999997 53.20299999999999 z M 15.245 15.338 L 15.354 15.229 C 16.866 13.751999999999999 19.069 12.997 21.913999999999998 12.997 C 26.409 12.997 31.909999999999997 14.844 37.62 18.079 C 33.85173231070439 20.772016834447346 30.314184125140233 23.774049263100736 27.043999999999933 27.05400000000006 C 23.77430972488594 30.31070138779147 20.781314554695637 33.833859426192745 18.096000000000018 37.586999999999996 C 16.733999999999995 35.167 15.582999999999997 32.762 14.734999999999996 30.423000000000002 C 12.284999999999997 23.663000000000004 12.474999999999996 18.174 15.244999999999996 15.338000000000001 z M 67.976 15.228 L 68.092 15.344 C 70.857 18.18 71.04899999999999 23.667 68.601 30.424999999999997 C 67.753 32.765 66.604 35.169 65.24 37.589999999999996 C 62.55512037240872 33.83652006191354 59.562095483066365 30.31332704007145 56.291999999999945 27.05699999999996 C 53.0221335377569 23.776705056775064 49.48455563081232 20.7746474059782 45.71599999999992 18.081999999999944 C 51.425 14.848 56.925 13 61.42 13 C 64.263 12.999 66.464 13.752 67.975 15.228 z M 59.260999999999996 8.767 C 53.946999999999996 9.277999999999999 47.849 11.622 41.666 15.407 C 35.486 11.622 29.385999999999996 9.278 24.071999999999996 8.767 C 29.316999999999997 5.951 35.306999999999995 4.3469999999999995 41.666999999999994 4.3469999999999995 C 48.026999999999994 4.3469999999999995 54.016999999999996 5.949 59.260999999999996 8.767 z M 8.777 24.053 C 9.013 26.472 9.629 29.103 10.645 31.903 C 11.795 35.080999999999996 13.421 38.355 15.418 41.626999999999995 C 11.578 47.901999999999994 9.28 54.016999999999996 8.77 59.266999999999996 C 5.861014887111188 53.857143521460564 4.3415115891882365 47.80936920136921 4.3480000000000025 41.667 C 4.341258650083156 35.51928491230404 5.86325160778655 29.4663646239799 8.776999999999987 24.053000000000022 z M 24.066 74.563 C 29.383 74.047 35.483999999999995 71.7 41.666 67.911 C 47.849 71.7 53.949999999999996 74.046 59.266999999999996 74.563 C 53.85690005660092 77.47135690756035 47.809286824142745 78.99081973221547 41.666999999999994 78.985 C 35.5243130026535 78.99148685412426 29.476215391039595 77.4719886643307 24.066000000000003 74.56300000000002 z" stroke-linecap="round" />
</g>
</svg>